# xmcd
#
# Track frame offsets:
# 150
# 20534
# 45919
# 72477
# 89989
# 105593
# 130727
# 161566
# 177054
# 192609
# 207906
# 224691
# 239993
# 260660
# 274335
# 282377
# 288384
# 297819
# 308867
#
# Disc length: 4428 seconds
#
#
# Revision: 0
# Processed by: cddbd v1.4PL0 Copyright (c) Steve Scherf et al.
# Submitted via: FreeRIP 2.51 
#
DISCID=3b114a13
DTITLE=Frank Hovington - Gone With The Wind
DYEAR=2000
DGENRE=Blues
TTITLE0=Gone With The Wind
TTITLE1=Lonesome Road Blues
TTITLE2=Digging My Potatoes/Who's Been Foolin' You
TTITLE3=90 Goin North
TTITLE4=Nobody's Darling But Mine
TTITLE5=Got No Lovin' Baby Now
TTITLE6=John Henry
TTITLE7=Mean Old Frisco
TTITLE8=Railroad Bill
TTITLE9=Trouble In My Mind
TTITLE10=Where Could I Go But To The Lord
TTITLE11=This Heart of Mine
TTITLE12=Blood Red River
TTITLE13=Sing Sing Blues
TTITLE14=I'm Talking 'bout You
TTITLE15=C.C. Blues
TTITLE16=You Rascal You
TTITLE17=Old Blue
TTITLE18=Who's Been Foolin' You
EXTD=
EXTT0=
EXTT1=
EXTT2=
EXTT3=
EXTT4=
EXTT5=
EXTT6=
EXTT7=
EXTT8=
EXTT9=
EXTT10=
EXTT11=
EXTT12=
EXTT13=
EXTT14=
EXTT15=
EXTT16=
EXTT17=
EXTT18=
PLAYORDER=
